# xmcd
#
# Track frame offsets: 
#        150
#        15835
#        27817
#        39490
#        53457
#        68810
#        80872
#        93980
#        107272
#        121997
#
# Disc length: 1815 seconds
#
# Revision: 0
# Processed by: cddbd v1.4PL0 Copyright (c) Steve Scherf et al.
# Submitted via: ExactAudioCopy v0.90b3
#
DISCID=6a07150a
DTITLE=Lacy J. Dalton - Pure Country
DYEAR=1900
DGENRE=Country
TTITLE0=Takin' It Easy
TTITLE1=Hillbilly Girl With The Blues
TTITLE2=Hard Times
TTITLE3=Whisper
TTITLE4=Everybody Makes Mistakes
TTITLE5=Slow Down
TTITLE6=Dream Baby (How Long Must I Dream)
TTITLE7=Size Seven Round
TTITLE8=Working Class Man
TTITLE9=16Th Avenue
EXTD=
EXTT0=
EXTT1=
EXTT2=
EXTT3=
EXTT4=
EXTT5=
EXTT6=
EXTT7=
EXTT8=
EXTT9=
PLAYORDER=
